<svg width="20" height="20" viewBox="0 0 20 20" fill="none" xmlns="http://www.w3.org/2000/svg">
<path d="M12.5 11.6667C10.275 11.6667 5.83331 12.775 5.83331 15V16.6667H19.1666V15C19.1666 12.775 14.725 11.6667 12.5 11.6667ZM4.99998 8.33333V5.83333H3.33331V8.33333H0.833313V9.99999H3.33331V12.5H4.99998V9.99999H7.49998V8.33333M12.5 9.99999C13.384 9.99999 14.2319 9.64881 14.857 9.02368C15.4821 8.39856 15.8333 7.55072 15.8333 6.66666C15.8333 5.78261 15.4821 4.93476 14.857 4.30964C14.2319 3.68452 13.384 3.33333 12.5 3.33333C11.6159 3.33333 10.7681 3.68452 10.143 4.30964C9.51784 4.93476 9.16665 5.78261 9.16665 6.66666C9.16665 7.55072 9.51784 8.39856 10.143 9.02368C10.7681 9.64881 11.6159 9.99999 12.5 9.99999Z" fill="white"/>
</svg>
