<svg width="20" height="20" viewBox="0 0 20 20" fill="none" xmlns="http://www.w3.org/2000/svg">
<path d="M13.75 17.5H15.5575C15.7977 17.4999 16.0351 17.4479 16.2534 17.3475C16.4716 17.2471 16.6656 17.1007 16.822 16.9183C16.9784 16.736 17.0935 16.522 17.1595 16.291C17.2254 16.06 17.2407 15.8174 17.2042 15.58L16.0508 8.08C15.9903 7.68647 15.7909 7.3276 15.4887 7.06836C15.1865 6.80911 14.8015 6.66662 14.4033 6.66667H5.59667C5.19851 6.66662 4.81349 6.80911 4.51129 7.06836C4.20909 7.3276 4.00969 7.68647 3.94917 8.08L2.795 15.58C2.75847 15.8175 2.77374 16.0601 2.83976 16.2912C2.90577 16.5222 3.02097 16.7363 3.17746 16.9187C3.33394 17.101 3.52802 17.2474 3.74637 17.3477C3.96472 17.4481 4.20219 17.5 4.4425 17.5H6.25M10 15.8333V10M10 10L12.5 12.5M10 10L7.5 12.5M11.6667 4.16667C11.6667 3.72464 11.4911 3.30072 11.1785 2.98816C10.866 2.67559 10.442 2.5 10 2.5C9.55797 2.5 9.13405 2.67559 8.82149 2.98816C8.50893 3.30072 8.33333 3.72464 8.33333 4.16667" stroke="white" stroke-width="1.5" stroke-linecap="round" stroke-linejoin="round"/>
</svg>
