<svg width="20" height="20" viewBox="0 0 20 20" fill="none" xmlns="http://www.w3.org/2000/svg">
<path d="M2.50002 16.6667V7.25001C2.26391 7.09723 2.06586 6.90278 1.90586 6.66667C1.74586 6.43056 1.66613 6.15278 1.66669 5.83334V3.33334C1.66669 2.87501 1.83002 2.48251 2.15669 2.15584C2.48336 1.82917 2.87558 1.66612 3.33336 1.66667H16.6667C17.125 1.66667 17.5175 1.83001 17.8442 2.15667C18.1709 2.48334 18.3339 2.87556 18.3334 3.33334V5.83334C18.3334 6.15278 18.2534 6.43056 18.0934 6.66667C17.9334 6.90278 17.7356 7.09723 17.5 7.25001V16.6667C17.5 17.125 17.3367 17.5175 17.01 17.8442C16.6834 18.1708 16.2911 18.3339 15.8334 18.3333H4.16669C3.70836 18.3333 3.31586 18.17 2.98919 17.8433C2.66252 17.5167 2.49947 17.1245 2.50002 16.6667ZM4.16669 7.50001V16.6667H15.8334V7.50001H4.16669ZM16.6667 5.83334V3.33334H3.33336V5.83334H16.6667ZM7.50002 11.6667H12.5V10H7.50002V11.6667Z" fill="white"/>
</svg>
