<svg width="40" height="40" viewBox="0 0 40 40" fill="none" xmlns="http://www.w3.org/2000/svg">
<path d="M14.7 18.8167C14.5438 18.9716 14.4198 19.1559 14.3352 19.359C14.2506 19.5621 14.207 19.78 14.207 20C14.207 20.22 14.2506 20.4379 14.3352 20.641C14.4198 20.8441 14.5438 21.0284 14.7 21.1833C15.0123 21.4938 15.4347 21.668 15.875 21.668C16.3153 21.668 16.7377 21.4938 17.05 21.1833C17.2062 21.0284 17.3302 20.8441 17.4148 20.641C17.4994 20.4379 17.543 20.22 17.543 20C17.543 19.78 17.4994 19.5621 17.4148 19.359C17.3302 19.1559 17.2062 18.9716 17.05 18.8167C16.7377 18.5063 16.3153 18.332 15.875 18.332C15.4347 18.332 15.0123 18.5063 14.7 18.8167ZM18.8167 22.95C18.5062 23.2623 18.332 23.6847 18.332 24.125C18.332 24.5653 18.5062 24.9877 18.8167 25.3C18.9716 25.4562 19.1559 25.5802 19.359 25.6648C19.5621 25.7494 19.78 25.793 20 25.793C20.22 25.793 20.4379 25.7494 20.641 25.6648C20.8441 25.5802 21.0284 25.4562 21.1833 25.3C21.4937 24.9877 21.668 24.5653 21.668 24.125C21.668 23.6847 21.4937 23.2623 21.1833 22.95C21.0284 22.7938 20.8441 22.6698 20.641 22.5852C20.4379 22.5006 20.22 22.457 20 22.457C19.78 22.457 19.5621 22.5006 19.359 22.5852C19.1559 22.6698 18.9716 22.7938 18.8167 22.95ZM33.8167 6.28334C32.0037 4.45538 29.5555 3.39709 26.9819 3.32879C24.4082 3.2605 21.9074 4.18745 20 5.91667C18.1014 4.20764 15.6208 3.28997 13.067 3.35195C10.5133 3.41394 8.08009 4.45087 6.26666 6.25C4.46502 8.0664 3.42807 10.5042 3.36917 13.0619C3.31027 15.6196 4.23388 18.1026 5.94999 20C4.66695 21.4344 3.82506 23.2086 3.52534 25.1096C3.22563 27.0106 3.48083 28.9577 4.26032 30.7173C5.03981 32.4768 6.31047 33.9741 7.91983 35.0294C9.52919 36.0847 11.4089 36.6532 13.3333 36.6667C15.8004 36.6693 18.1789 35.7476 20 34.0833C21.8995 35.7973 24.3837 36.7179 26.9414 36.6559C29.4991 36.5939 31.9358 35.554 33.75 33.75C35.5493 31.9314 36.5832 29.4924 36.639 26.9348C36.6948 24.3771 35.7683 21.8953 34.05 20C35.7683 18.1047 36.6948 15.6229 36.639 13.0652C36.5832 10.5076 35.5493 8.06857 33.75 6.25L33.8167 6.28334ZM31.3833 8.61667C32.5424 9.80898 33.214 11.3914 33.2664 13.0534C33.3189 14.7154 32.7483 16.337 31.6667 17.6L22.4 8.33334C23.674 7.27623 25.2907 6.72152 26.9453 6.7737C28.6 6.82589 30.1784 7.48138 31.3833 8.61667ZM8.61666 31.3833C7.45761 30.191 6.78597 28.6086 6.73355 26.9466C6.68113 25.2846 7.25171 23.663 8.33333 22.4L17.6667 31.7333C16.3785 32.7967 14.744 33.3488 13.0749 33.2842C11.4058 33.2197 9.81884 32.543 8.61666 31.3833ZM31.3833 31.3833C30.1179 32.5936 28.4344 33.2691 26.6833 33.2691C24.9323 33.2691 23.2488 32.5936 21.9833 31.3833L8.64999 18.05C7.40832 16.8009 6.71137 15.1112 6.71137 13.35C6.71137 11.5888 7.40832 9.89909 8.64999 8.65C9.89908 7.40833 11.5888 6.71139 13.35 6.71139C15.1112 6.71139 16.8009 7.40833 18.05 8.65L31.3833 21.9833C32.625 23.2324 33.3219 24.9221 33.3219 26.6833C33.3219 28.4446 32.625 30.1343 31.3833 31.3833ZM22.95 18.8167C22.7938 18.9716 22.6698 19.1559 22.5852 19.359C22.5006 19.5621 22.457 19.78 22.457 20C22.457 20.22 22.5006 20.4379 22.5852 20.641C22.6698 20.8441 22.7938 21.0284 22.95 21.1833C23.2623 21.4938 23.6847 21.668 24.125 21.668C24.5653 21.668 24.9877 21.4938 25.3 21.1833C25.4562 21.0284 25.5802 20.8441 25.6648 20.641C25.7494 20.4379 25.793 20.22 25.793 20C25.793 19.78 25.7494 19.5621 25.6648 19.359C25.5802 19.1559 25.4562 18.9716 25.3 18.8167C24.9877 18.5063 24.5653 18.332 24.125 18.332C23.6847 18.332 23.2623 18.5063 22.95 18.8167ZM18.8167 14.7C18.5062 15.0123 18.332 15.4347 18.332 15.875C18.332 16.3153 18.5062 16.7377 18.8167 17.05C18.9716 17.2062 19.1559 17.3302 19.359 17.4148C19.5621 17.4994 19.78 17.543 20 17.543C20.22 17.543 20.4379 17.4994 20.641 17.4148C20.8441 17.3302 21.0284 17.2062 21.1833 17.05C21.4937 16.7377 21.668 16.3153 21.668 15.875C21.668 15.4347 21.4937 15.0123 21.1833 14.7C21.0284 14.5438 20.8441 14.4198 20.641 14.3352C20.4379 14.2506 20.22 14.207 20 14.207C19.78 14.207 19.5621 14.2506 19.359 14.3352C19.1559 14.4198 18.9716 14.5438 18.8167 14.7Z" fill="#64748B"/>
</svg>
