<svg width="143" height="40" viewBox="0 0 143 40" fill="none" xmlns="http://www.w3.org/2000/svg">
<path d="M14.7 18.8167C14.5438 18.9716 14.4198 19.1559 14.3352 19.359C14.2506 19.5621 14.207 19.78 14.207 20C14.207 20.22 14.2506 20.4379 14.3352 20.641C14.4198 20.8441 14.5438 21.0284 14.7 21.1833C15.0123 21.4938 15.4347 21.668 15.875 21.668C16.3153 21.668 16.7377 21.4938 17.05 21.1833C17.2062 21.0284 17.3302 20.8441 17.4148 20.641C17.4994 20.4379 17.543 20.22 17.543 20C17.543 19.78 17.4994 19.5621 17.4148 19.359C17.3302 19.1559 17.2062 18.9716 17.05 18.8167C16.7377 18.5063 16.3153 18.332 15.875 18.332C15.4347 18.332 15.0123 18.5063 14.7 18.8167ZM18.8167 22.95C18.5062 23.2623 18.332 23.6847 18.332 24.125C18.332 24.5653 18.5062 24.9877 18.8167 25.3C18.9716 25.4562 19.1559 25.5802 19.359 25.6648C19.5621 25.7494 19.78 25.793 20 25.793C20.22 25.793 20.4379 25.7494 20.641 25.6648C20.8441 25.5802 21.0284 25.4562 21.1833 25.3C21.4937 24.9877 21.668 24.5653 21.668 24.125C21.668 23.6847 21.4937 23.2623 21.1833 22.95C21.0284 22.7938 20.8441 22.6698 20.641 22.5852C20.4379 22.5006 20.22 22.457 20 22.457C19.78 22.457 19.5621 22.5006 19.359 22.5852C19.1559 22.6698 18.9716 22.7938 18.8167 22.95ZM33.8167 6.28334C32.0037 4.45538 29.5555 3.39709 26.9819 3.32879C24.4082 3.2605 21.9074 4.18745 20 5.91667C18.1014 4.20764 15.6208 3.28997 13.067 3.35195C10.5133 3.41394 8.08009 4.45087 6.26666 6.25C4.46502 8.0664 3.42807 10.5042 3.36917 13.0619C3.31027 15.6196 4.23388 18.1026 5.94999 20C4.66695 21.4344 3.82506 23.2086 3.52534 25.1096C3.22563 27.0106 3.48083 28.9577 4.26032 30.7173C5.03981 32.4768 6.31047 33.9741 7.91983 35.0294C9.52919 36.0847 11.4089 36.6532 13.3333 36.6667C15.8004 36.6693 18.1789 35.7476 20 34.0833C21.8995 35.7973 24.3837 36.7179 26.9414 36.6559C29.4991 36.5939 31.9358 35.554 33.75 33.75C35.5493 31.9314 36.5832 29.4924 36.639 26.9348C36.6948 24.3771 35.7683 21.8953 34.05 20C35.7683 18.1047 36.6948 15.6229 36.639 13.0652C36.5832 10.5076 35.5493 8.06857 33.75 6.25L33.8167 6.28334ZM31.3833 8.61667C32.5424 9.80898 33.214 11.3914 33.2664 13.0534C33.3189 14.7154 32.7483 16.337 31.6667 17.6L22.4 8.33334C23.674 7.27623 25.2907 6.72152 26.9453 6.7737C28.6 6.82589 30.1784 7.48138 31.3833 8.61667ZM8.61666 31.3833C7.45761 30.191 6.78597 28.6086 6.73355 26.9466C6.68113 25.2846 7.25171 23.663 8.33333 22.4L17.6667 31.7333C16.3785 32.7967 14.744 33.3488 13.0749 33.2842C11.4058 33.2197 9.81884 32.543 8.61666 31.3833ZM31.3833 31.3833C30.1179 32.5936 28.4344 33.2691 26.6833 33.2691C24.9323 33.2691 23.2488 32.5936 21.9833 31.3833L8.64999 18.05C7.40832 16.8009 6.71137 15.1112 6.71137 13.35C6.71137 11.5888 7.40832 9.89909 8.64999 8.65C9.89908 7.40833 11.5888 6.71139 13.35 6.71139C15.1112 6.71139 16.8009 7.40833 18.05 8.65L31.3833 21.9833C32.625 23.2324 33.3219 24.9221 33.3219 26.6833C33.3219 28.4446 32.625 30.1343 31.3833 31.3833ZM22.95 18.8167C22.7938 18.9716 22.6698 19.1559 22.5852 19.359C22.5006 19.5621 22.457 19.78 22.457 20C22.457 20.22 22.5006 20.4379 22.5852 20.641C22.6698 20.8441 22.7938 21.0284 22.95 21.1833C23.2623 21.4938 23.6847 21.668 24.125 21.668C24.5653 21.668 24.9877 21.4938 25.3 21.1833C25.4562 21.0284 25.5802 20.8441 25.6648 20.641C25.7494 20.4379 25.793 20.22 25.793 20C25.793 19.78 25.7494 19.5621 25.6648 19.359C25.5802 19.1559 25.4562 18.9716 25.3 18.8167C24.9877 18.5063 24.5653 18.332 24.125 18.332C23.6847 18.332 23.2623 18.5063 22.95 18.8167ZM18.8167 14.7C18.5062 15.0123 18.332 15.4347 18.332 15.875C18.332 16.3153 18.5062 16.7377 18.8167 17.05C18.9716 17.2062 19.1559 17.3302 19.359 17.4148C19.5621 17.4994 19.78 17.543 20 17.543C20.22 17.543 20.4379 17.4994 20.641 17.4148C20.8441 17.3302 21.0284 17.2062 21.1833 17.05C21.4937 16.7377 21.668 16.3153 21.668 15.875C21.668 15.4347 21.4937 15.0123 21.1833 14.7C21.0284 14.5438 20.8441 14.4198 20.641 14.3352C20.4379 14.2506 20.22 14.207 20 14.207C19.78 14.207 19.5621 14.2506 19.359 14.3352C19.1559 14.4198 18.9716 14.5438 18.8167 14.7Z" fill="#F87171"/>
<path d="M49.0391 10.9375V28H45.5234V10.9375H49.0391ZM55.8359 18.2266V20.9688H48.0781V18.2266H55.8359ZM56.6562 10.9375V13.6914H48.0781V10.9375H56.6562Z" fill="#334155"/>
<path d="M64.9297 25.1406V19.4922C64.9297 19.0859 64.8633 18.7383 64.7305 18.4492C64.5977 18.1523 64.3906 17.9219 64.1094 17.7578C63.8359 17.5938 63.4805 17.5117 63.043 17.5117C62.668 17.5117 62.3438 17.5781 62.0703 17.7109C61.7969 17.8359 61.5859 18.0195 61.4375 18.2617C61.2891 18.4961 61.2148 18.7734 61.2148 19.0938H57.8398C57.8398 18.5547 57.9648 18.043 58.2148 17.5586C58.4648 17.0742 58.8281 16.6484 59.3047 16.2812C59.7812 15.9062 60.3477 15.6133 61.0039 15.4023C61.668 15.1914 62.4102 15.0859 63.2305 15.0859C64.2148 15.0859 65.0898 15.25 65.8555 15.5781C66.6211 15.9062 67.2227 16.3984 67.6602 17.0547C68.1055 17.7109 68.3281 18.5312 68.3281 19.5156V24.9414C68.3281 25.6367 68.3711 26.207 68.457 26.6523C68.543 27.0898 68.668 27.4727 68.832 27.8008V28H65.4219C65.2578 27.6562 65.1328 27.2266 65.0469 26.7109C64.9688 26.1875 64.9297 25.6641 64.9297 25.1406ZM65.375 20.2773L65.3984 22.1875H63.5117C63.0664 22.1875 62.6797 22.2383 62.3516 22.3398C62.0234 22.4414 61.7539 22.5859 61.543 22.7734C61.332 22.9531 61.1758 23.1641 61.0742 23.4062C60.9805 23.6484 60.9336 23.9141 60.9336 24.2031C60.9336 24.4922 61 24.7539 61.1328 24.9883C61.2656 25.2148 61.457 25.3945 61.707 25.5273C61.957 25.6523 62.25 25.7148 62.5859 25.7148C63.0938 25.7148 63.5352 25.6133 63.9102 25.4102C64.2852 25.207 64.5742 24.957 64.7773 24.6602C64.9883 24.3633 65.0977 24.082 65.1055 23.8164L65.9961 25.2461C65.8711 25.5664 65.6992 25.8984 65.4805 26.2422C65.2695 26.5859 65 26.9102 64.6719 27.2148C64.3438 27.5117 63.9492 27.7578 63.4883 27.9531C63.0273 28.1406 62.4805 28.2344 61.8477 28.2344C61.043 28.2344 60.3125 28.0742 59.6562 27.7539C59.0078 27.4258 58.4922 26.9766 58.1094 26.4062C57.7344 25.8281 57.5469 25.1719 57.5469 24.4375C57.5469 23.7734 57.6719 23.1836 57.9219 22.668C58.1719 22.1523 58.5391 21.7188 59.0234 21.3672C59.5156 21.0078 60.1289 20.7383 60.8633 20.5586C61.5977 20.3711 62.4492 20.2773 63.418 20.2773H65.375Z" fill="#334155"/>
<path d="M74.3047 18.0859V28H70.9297V15.3203H74.1055L74.3047 18.0859ZM78.125 15.2383L78.0664 18.3672C77.9023 18.3438 77.7031 18.3242 77.4688 18.3086C77.2422 18.2852 77.0352 18.2734 76.8477 18.2734C76.3711 18.2734 75.957 18.3359 75.6055 18.4609C75.2617 18.5781 74.9727 18.7539 74.7383 18.9883C74.5117 19.2227 74.3398 19.5078 74.2227 19.8438C74.1133 20.1797 74.0508 20.5625 74.0352 20.9922L73.3555 20.7812C73.3555 19.9609 73.4375 19.207 73.6016 18.5195C73.7656 17.8242 74.0039 17.2188 74.3164 16.7031C74.6367 16.1875 75.0273 15.7891 75.4883 15.5078C75.9492 15.2266 76.4766 15.0859 77.0703 15.0859C77.2578 15.0859 77.4492 15.1016 77.6445 15.1328C77.8398 15.1562 78 15.1914 78.125 15.2383Z" fill="#334155"/>
<path d="M83.0938 17.9453V28H79.707V15.3203H82.8828L83.0938 17.9453ZM82.625 21.2148H81.6875C81.6875 20.332 81.793 19.5195 82.0039 18.7773C82.2227 18.0273 82.5391 17.3789 82.9531 16.832C83.375 16.2773 83.8945 15.8477 84.5117 15.543C85.1289 15.2383 85.8438 15.0859 86.6562 15.0859C87.2188 15.0859 87.7344 15.1719 88.2031 15.3438C88.6719 15.5078 89.0742 15.7695 89.4102 16.1289C89.7539 16.4805 90.0195 16.9414 90.207 17.5117C90.3945 18.0742 90.4883 18.75 90.4883 19.5391V28H87.1133V19.9141C87.1133 19.3359 87.0352 18.8906 86.8789 18.5781C86.7227 18.2656 86.5 18.0469 86.2109 17.9219C85.9297 17.7969 85.5898 17.7344 85.1914 17.7344C84.7539 17.7344 84.3711 17.8242 84.043 18.0039C83.7227 18.1836 83.457 18.4336 83.2461 18.7539C83.0352 19.0664 82.8789 19.4336 82.7773 19.8555C82.6758 20.2773 82.625 20.7305 82.625 21.2148ZM90.1719 20.8281L88.9648 20.9805C88.9648 20.1523 89.0664 19.3828 89.2695 18.6719C89.4805 17.9609 89.7891 17.3359 90.1953 16.7969C90.6094 16.2578 91.1211 15.8398 91.7305 15.543C92.3398 15.2383 93.043 15.0859 93.8398 15.0859C94.4492 15.0859 95.0039 15.1758 95.5039 15.3555C96.0039 15.5273 96.4297 15.8047 96.7812 16.1875C97.1406 16.5625 97.4141 17.0547 97.6016 17.6641C97.7969 18.2734 97.8945 19.0195 97.8945 19.9023V28H94.5078V19.9023C94.5078 19.3164 94.4297 18.8711 94.2734 18.5664C94.125 18.2539 93.9062 18.0391 93.6172 17.9219C93.3359 17.7969 93 17.7344 92.6094 17.7344C92.2031 17.7344 91.8477 17.8164 91.543 17.9805C91.2383 18.1367 90.9844 18.3555 90.7812 18.6367C90.5781 18.918 90.4258 19.2461 90.3242 19.6211C90.2227 19.9883 90.1719 20.3906 90.1719 20.8281Z" fill="#334155"/>
<path d="M107.352 25.1406V19.4922C107.352 19.0859 107.285 18.7383 107.152 18.4492C107.02 18.1523 106.812 17.9219 106.531 17.7578C106.258 17.5938 105.902 17.5117 105.465 17.5117C105.09 17.5117 104.766 17.5781 104.492 17.7109C104.219 17.8359 104.008 18.0195 103.859 18.2617C103.711 18.4961 103.637 18.7734 103.637 19.0938H100.262C100.262 18.5547 100.387 18.043 100.637 17.5586C100.887 17.0742 101.25 16.6484 101.727 16.2812C102.203 15.9062 102.77 15.6133 103.426 15.4023C104.09 15.1914 104.832 15.0859 105.652 15.0859C106.637 15.0859 107.512 15.25 108.277 15.5781C109.043 15.9062 109.645 16.3984 110.082 17.0547C110.527 17.7109 110.75 18.5312 110.75 19.5156V24.9414C110.75 25.6367 110.793 26.207 110.879 26.6523C110.965 27.0898 111.09 27.4727 111.254 27.8008V28H107.844C107.68 27.6562 107.555 27.2266 107.469 26.7109C107.391 26.1875 107.352 25.6641 107.352 25.1406ZM107.797 20.2773L107.82 22.1875H105.934C105.488 22.1875 105.102 22.2383 104.773 22.3398C104.445 22.4414 104.176 22.5859 103.965 22.7734C103.754 22.9531 103.598 23.1641 103.496 23.4062C103.402 23.6484 103.355 23.9141 103.355 24.2031C103.355 24.4922 103.422 24.7539 103.555 24.9883C103.688 25.2148 103.879 25.3945 104.129 25.5273C104.379 25.6523 104.672 25.7148 105.008 25.7148C105.516 25.7148 105.957 25.6133 106.332 25.4102C106.707 25.207 106.996 24.957 107.199 24.6602C107.41 24.3633 107.52 24.082 107.527 23.8164L108.418 25.2461C108.293 25.5664 108.121 25.8984 107.902 26.2422C107.691 26.5859 107.422 26.9102 107.094 27.2148C106.766 27.5117 106.371 27.7578 105.91 27.9531C105.449 28.1406 104.902 28.2344 104.27 28.2344C103.465 28.2344 102.734 28.0742 102.078 27.7539C101.43 27.4258 100.914 26.9766 100.531 26.4062C100.156 25.8281 99.9688 25.1719 99.9688 24.4375C99.9688 23.7734 100.094 23.1836 100.344 22.668C100.594 22.1523 100.961 21.7188 101.445 21.3672C101.938 21.0078 102.551 20.7383 103.285 20.5586C104.02 20.3711 104.871 20.2773 105.84 20.2773H107.797Z" fill="#334155"/>
<path d="M118.59 25.5977C119.004 25.5977 119.371 25.5195 119.691 25.3633C120.012 25.1992 120.262 24.9727 120.441 24.6836C120.629 24.3867 120.727 24.0391 120.734 23.6406H123.91C123.902 24.5312 123.664 25.3242 123.195 26.0195C122.727 26.707 122.098 27.25 121.309 27.6484C120.52 28.0391 119.637 28.2344 118.66 28.2344C117.676 28.2344 116.816 28.0703 116.082 27.7422C115.355 27.4141 114.75 26.9609 114.266 26.3828C113.781 25.7969 113.418 25.1172 113.176 24.3438C112.934 23.5625 112.812 22.7266 112.812 21.8359V21.4961C112.812 20.5977 112.934 19.7617 113.176 18.9883C113.418 18.207 113.781 17.5273 114.266 16.9492C114.75 16.3633 115.355 15.9062 116.082 15.5781C116.809 15.25 117.66 15.0859 118.637 15.0859C119.676 15.0859 120.586 15.2852 121.367 15.6836C122.156 16.082 122.773 16.6523 123.219 17.3945C123.672 18.1289 123.902 19 123.91 20.0078H120.734C120.727 19.5859 120.637 19.2031 120.465 18.8594C120.301 18.5156 120.059 18.2422 119.738 18.0391C119.426 17.8281 119.039 17.7227 118.578 17.7227C118.086 17.7227 117.684 17.8281 117.371 18.0391C117.059 18.2422 116.816 18.5234 116.645 18.8828C116.473 19.2344 116.352 19.6367 116.281 20.0898C116.219 20.5352 116.188 21.0039 116.188 21.4961V21.8359C116.188 22.3281 116.219 22.8008 116.281 23.2539C116.344 23.707 116.461 24.1094 116.633 24.4609C116.812 24.8125 117.059 25.0898 117.371 25.293C117.684 25.4961 118.09 25.5977 118.59 25.5977Z" fill="#334155"/>
<path d="M129.43 15.3203V28H126.043V15.3203H129.43ZM125.832 12.0156C125.832 11.5234 126.004 11.1172 126.348 10.7969C126.691 10.4766 127.152 10.3164 127.73 10.3164C128.301 10.3164 128.758 10.4766 129.102 10.7969C129.453 11.1172 129.629 11.5234 129.629 12.0156C129.629 12.5078 129.453 12.9141 129.102 13.2344C128.758 13.5547 128.301 13.7148 127.73 13.7148C127.152 13.7148 126.691 13.5547 126.348 13.2344C126.004 12.9141 125.832 12.5078 125.832 12.0156Z" fill="#334155"/>
<path d="M139.062 25.1406V19.4922C139.062 19.0859 138.996 18.7383 138.863 18.4492C138.73 18.1523 138.523 17.9219 138.242 17.7578C137.969 17.5938 137.613 17.5117 137.176 17.5117C136.801 17.5117 136.477 17.5781 136.203 17.7109C135.93 17.8359 135.719 18.0195 135.57 18.2617C135.422 18.4961 135.348 18.7734 135.348 19.0938H131.973C131.973 18.5547 132.098 18.043 132.348 17.5586C132.598 17.0742 132.961 16.6484 133.438 16.2812C133.914 15.9062 134.48 15.6133 135.137 15.4023C135.801 15.1914 136.543 15.0859 137.363 15.0859C138.348 15.0859 139.223 15.25 139.988 15.5781C140.754 15.9062 141.355 16.3984 141.793 17.0547C142.238 17.7109 142.461 18.5312 142.461 19.5156V24.9414C142.461 25.6367 142.504 26.207 142.59 26.6523C142.676 27.0898 142.801 27.4727 142.965 27.8008V28H139.555C139.391 27.6562 139.266 27.2266 139.18 26.7109C139.102 26.1875 139.062 25.6641 139.062 25.1406ZM139.508 20.2773L139.531 22.1875H137.645C137.199 22.1875 136.812 22.2383 136.484 22.3398C136.156 22.4414 135.887 22.5859 135.676 22.7734C135.465 22.9531 135.309 23.1641 135.207 23.4062C135.113 23.6484 135.066 23.9141 135.066 24.2031C135.066 24.4922 135.133 24.7539 135.266 24.9883C135.398 25.2148 135.59 25.3945 135.84 25.5273C136.09 25.6523 136.383 25.7148 136.719 25.7148C137.227 25.7148 137.668 25.6133 138.043 25.4102C138.418 25.207 138.707 24.957 138.91 24.6602C139.121 24.3633 139.23 24.082 139.238 23.8164L140.129 25.2461C140.004 25.5664 139.832 25.8984 139.613 26.2422C139.402 26.5859 139.133 26.9102 138.805 27.2148C138.477 27.5117 138.082 27.7578 137.621 27.9531C137.16 28.1406 136.613 28.2344 135.98 28.2344C135.176 28.2344 134.445 28.0742 133.789 27.7539C133.141 27.4258 132.625 26.9766 132.242 26.4062C131.867 25.8281 131.68 25.1719 131.68 24.4375C131.68 23.7734 131.805 23.1836 132.055 22.668C132.305 22.1523 132.672 21.7188 133.156 21.3672C133.648 21.0078 134.262 20.7383 134.996 20.5586C135.73 20.3711 136.582 20.2773 137.551 20.2773H139.508Z" fill="#334155"/>
</svg>
